<?xml version="1.0" standalone="no"?>
<!DOCTYPE svg PUBLIC "-//W3C//DTD SVG 20010904//EN"
 "http://www.w3.org/TR/2001/REC-SVG-20010904/DTD/svg10.dtd">
<svg version="1.0" xmlns="http://www.w3.org/2000/svg"
 width="360.000000pt" height="285.000000pt" viewBox="0 0 360.000000 285.000000"
 preserveAspectRatio="xMidYMid meet">
<metadata>
Created by potrace 1.16, written by Peter Selinger 2001-2019
</metadata>
<g transform="translate(0.000000,285.000000) scale(0.100000,-0.100000)"
fill="#000000" stroke="none">
<path d="M1745 2842 c-48 -4 -68 -18 -60 -43 4 -10 0 -28 -8 -39 -9 -13 -13
-35 -10 -56 7 -51 -1 -68 -27 -52 -25 16 -27 40 -2 32 15 -5 15 -4 1 8 -16 14
-22 48 -7 48 4 0 8 -4 8 -10 0 -5 4 -10 8 -10 16 0 9 30 -7 30 -9 0 -24 7 -35
15 -16 12 -22 12 -47 -1 -16 -8 -33 -23 -39 -34 -6 -11 -17 -20 -24 -20 -8 0
-19 -12 -25 -27 -6 -16 -16 -35 -22 -44 -10 -13 -6 -24 22 -60 42 -54 50 -60
65 -48 8 7 8 -2 -2 -28 -7 -21 -13 -53 -14 -71 0 -34 24 -102 40 -112 13 -8
30 -99 31 -164 l1 -51 14 50 c13 47 18 105 7 77 -8 -20 -23 -3 -23 26 0 21 2
24 10 12 7 -12 10 -12 10 -1 0 7 11 26 24 42 l24 28 6 -25 c4 -14 5 -28 2 -32
-2 -4 2 -34 9 -66 8 -32 11 -55 8 -52 -7 7 -35 -48 -51 -101 -12 -39 -34 -59
-52 -48 -15 9 0 32 23 40 14 4 17 8 10 12 -7 2 -13 12 -13 21 -1 15 -2 15 -13
2 -7 -8 -21 -20 -32 -26 -11 -6 -25 -25 -31 -43 -6 -18 -16 -36 -22 -40 -20
-12 -32 -94 -21 -137 14 -50 26 -64 55 -64 17 0 24 -6 24 -20 0 -28 41 -42
104 -36 28 3 118 5 199 5 133 1 149 3 153 19 3 9 17 24 32 33 15 8 33 29 41
45 7 16 17 37 22 47 5 9 5 25 1 35 -5 9 -16 32 -25 50 -9 19 -17 42 -17 51 0
19 -24 44 -51 54 -39 14 -30 184 14 254 43 68 50 122 25 203 -3 8 -3 12 -1 8
10 -17 31 -6 72 38 40 44 42 47 27 70 -9 13 -16 30 -16 39 0 8 -11 21 -25 27
-14 6 -32 22 -40 35 -18 27 -66 31 -85 8 -25 -30 -54 -14 -71 40 l-16 50 -59
5 c-32 3 -77 4 -99 2z m155 -577 c8 18 9 18 9 -5 0 -14 -4 -43 -8 -65 l-9 -40
-2 35 -2 35 -9 -33 c-6 -21 -6 -46 0 -69 6 -20 8 -40 5 -44 -3 -5 3 -20 12
-34 10 -15 12 -25 5 -25 -6 0 -11 8 -11 17 0 13 -3 14 -12 5 -22 -22 -38 -14
-32 17 4 20 2 30 -10 34 -16 7 -21 -11 -17 -60 1 -17 -4 -23 -18 -23 -28 0
-34 30 -28 134 3 50 3 82 1 71 -12 -46 -18 -50 -25 -15 -5 22 -6 8 -2 -36 4
-59 2 -72 -11 -77 -18 -7 -22 -28 -4 -24 6 1 14 -6 16 -17 3 -12 0 -16 -8 -11
-6 4 -20 -1 -32 -11 -15 -15 -19 -15 -17 -4 2 8 -1 15 -6 15 -5 0 -9 -7 -7
-15 2 -11 -1 -10 -8 3 -6 9 -15 15 -21 12 -5 -4 -9 -1 -9 5 0 7 7 10 15 6 8
-3 15 -1 15 4 0 6 10 11 23 11 22 2 22 2 -1 6 -19 4 -23 9 -18 26 3 12 6 31 7
42 1 11 5 2 9 -20 6 -33 7 -25 9 40 1 56 -3 87 -13 101 -25 35 12 58 44 29 14
-13 19 -13 23 -3 4 8 8 4 13 -12 l8 -25 12 30 12 29 6 -40 c3 -21 8 -65 12
-97 9 -80 26 -59 32 40 4 56 10 81 21 90 14 10 17 7 20 -20 3 -28 4 -29 11
-12z m43 21 c9 -13 20 -39 26 -57 l11 -34 -3 33 c-2 17 0 32 4 32 4 0 7 -45 6
-99 -1 -55 -5 -97 -9 -95 -16 10 -7 -9 10 -22 14 -10 15 -15 4 -25 -17 -19
-35 3 -58 71 -17 53 -27 220 -13 220 4 0 14 -11 22 -24z m-82 -307 c13 -11 19
-18 12 -15 -6 4 -14 2 -18 -4 -4 -6 -10 -8 -15 -5 -5 3 -7 -4 -5 -15 2 -11 0
-20 -6 -20 -5 0 -9 4 -9 9 0 4 -12 8 -27 7 -20 -1 -27 3 -25 14 2 8 0 12 -4 8
-4 -4 -14 -2 -23 5 -14 11 -14 10 -2 -5 7 -10 10 -18 6 -18 -4 0 -2 -7 5 -15
6 -8 9 -19 6 -24 -4 -5 1 -14 10 -19 22 -12 14 -34 -14 -39 -16 -2 -25 4 -32
20 -5 12 -9 16 -9 9 -1 -7 4 -22 10 -33 8 -16 13 -18 25 -8 8 6 14 8 14 4 0
-5 9 0 19 9 16 15 18 21 8 37 -9 14 -9 21 0 30 16 16 36 0 29 -25 -3 -13 3
-33 15 -51 19 -28 20 -28 14 -5 -6 20 -5 23 6 13 7 -7 18 -13 24 -13 12 1 -26
24 -39 25 -16 0 -18 22 -3 37 8 7 13 21 11 30 -1 10 5 23 14 30 13 11 15 10 9
-5 -4 -11 -3 -16 3 -12 6 3 10 2 10 -4 0 -5 -6 -12 -12 -14 -8 -3 -5 -6 6 -6
14 -1 17 4 13 22 -8 30 6 52 28 43 13 -4 16 -2 11 9 -3 8 -1 15 4 15 6 0 10
-8 10 -19 0 -14 6 -17 25 -13 14 2 36 -3 49 -12 18 -11 26 -12 29 -3 3 7 9 1
15 -13 l11 -25 1 25 c2 22 3 21 12 -9 11 -41 2 -113 -13 -90 -6 11 -9 8 -9
-10 0 -24 -1 -24 -14 -6 -13 18 -14 17 -31 -14 -17 -34 -29 -32 -38 4 -4 18
-5 18 -6 -2 0 -13 -6 -23 -11 -23 -6 0 -8 12 -5 28 5 23 4 24 -4 6 -14 -31
-33 -41 -22 -12 9 25 0 129 -10 113 -4 -5 -9 -27 -13 -47 -21 -116 -190 -116
-212 0 -4 20 -9 31 -11 25 -3 -7 -11 -13 -19 -13 -21 0 -17 -17 11 -54 29 -38
31 -48 10 -40 -8 4 -15 12 -15 19 0 7 -15 18 -32 25 -18 6 -39 15 -47 19 -20
10 -52 -24 -44 -46 5 -15 4 -16 -8 -5 -11 10 -11 16 -1 32 10 16 10 20 0 21
-10 0 -10 2 0 6 15 6 16 50 1 55 -7 2 -7 12 0 31 15 40 43 32 54 -16 8 -32 13
-37 35 -36 21 1 23 2 7 6 -25 6 -35 21 -35 51 0 21 4 23 48 20 46 -3 47 -4 45
-33 -2 -26 -2 -27 6 -9 26 60 116 84 162 43z"/>
<path d="M650 1067 c-63 -22 -70 -50 -70 -299 l0 -218 75 0 75 0 0 265 0 265
-22 -1 c-13 0 -39 -5 -58 -12z"/>
<path d="M780 845 l0 -236 73 3 72 3 0 230 0 230 -72 3 -73 3 0 -236z"/>
<path d="M980 815 l0 -265 70 0 70 0 0 229 c0 215 -1 230 -20 254 -19 23 -72
47 -107 47 -10 0 -13 -60 -13 -265z"/>
<path d="M1274 1069 c-42 -12 -65 -40 -71 -88 l-6 -41 272 0 271 0 0 70 0 70
-217 -1 c-120 0 -232 -5 -249 -10z"/>
<path d="M1871 1064 c-60 -26 -60 -27 -61 -281 l0 -233 70 0 70 0 0 265 0 265
-22 0 c-13 -1 -38 -7 -57 -16z"/>
<path d="M2000 845 l0 -235 75 0 75 0 0 235 0 235 -75 0 -75 0 0 -235z"/>
<path d="M2200 816 l0 -266 70 0 70 0 0 225 c0 143 -4 233 -11 248 -12 27 -39
42 -93 52 l-36 7 0 -266z"/>
<path d="M2494 1069 c-42 -12 -65 -40 -71 -88 l-6 -41 272 0 271 0 0 70 0 70
-217 -1 c-120 0 -232 -5 -249 -10z"/>
<path d="M1200 858 c0 -37 36 -86 79 -108 37 -18 59 -20 251 -20 l212 0 -7 33
c-4 17 -19 44 -32 59 -46 49 -96 58 -310 58 l-193 0 0 -22z"/>
<path d="M2420 800 l0 -70 205 0 205 0 0 70 0 70 -205 0 -205 0 0 -70z"/>
<path d="M1200 614 l0 -65 240 3 240 3 25 26 c14 14 28 42 32 62 l6 37 -272 0
-271 0 0 -66z"/>
<path d="M2420 655 c0 -40 21 -73 55 -90 27 -12 76 -15 259 -15 l226 0 0 65 0
65 -270 0 -270 0 0 -25z"/>
<path d="M580 485 l0 -25 1188 2 c1179 3 1187 3 1187 23 0 20 -8 20 -1187 23
l-1188 2 0 -25z"/>
<path d="M1993 223 c-19 -4 -22 -10 -19 -36 3 -31 4 -32 57 -33 29 -1 55 -7
57 -13 9 -27 22 -7 22 35 0 38 3 45 18 42 12 -3 16 -12 14 -31 -1 -15 2 -27 8
-27 5 0 10 5 10 10 0 6 7 10 15 10 9 0 15 -9 15 -25 0 -46 18 -25 22 25 l3 50
-100 -1 c-55 -1 -110 -4 -122 -6z"/>
</g>
</svg>
